<svg width="537" height="91" viewBox="0 0 537 91" fill="none" xmlns="http://www.w3.org/2000/svg">
<path d="M501.613 0.324048C506.448 1.44579 509.715 5.23168 514.23 14.9301C517.113 21.123 517.497 25.3997 515.575 29.7932C515.287 30.4242 513.59 32.6443 511.764 34.7476C509.939 36.8275 508.306 38.7671 508.114 39.0242C507.825 39.4215 509.715 41.8519 522.397 57.2759L537 75.0602L534.662 82.3282C533.381 86.3478 532.292 89.9 532.196 90.2739C532.132 90.6244 531.972 90.9516 531.844 90.9983C531.748 91.0684 529.826 88.9184 527.617 86.2777C503.054 56.8085 498.122 50.9427 497.898 50.9427C497.802 50.9427 497.065 51.7139 496.296 52.6487C495.496 53.5601 494.279 55.0091 493.542 55.8504C492.806 56.6917 488.835 61.2488 484.735 66.0162C480.636 70.7602 476.697 75.2939 475.993 76.0651C470.164 82.3516 462.67 87.563 457.45 88.9885C453.767 89.9934 443.872 90.6478 433.015 90.5777C427.251 90.5309 427.251 90.5309 423.824 89.6896C418.284 88.2875 411.142 85.5298 405.378 82.5619C404.257 81.9776 400.382 79.7809 396.731 77.6309C389.077 73.1439 384.466 70.62 379.566 68.2363L376.107 66.5303L374.666 67.0444C373.865 67.3249 370.246 68.7972 366.596 70.3162C343.025 80.1782 341.008 80.9026 333.578 82.0945C327.749 83.0526 312.121 84.7586 305.556 85.2027L303.314 85.3429L305.556 84.4782C310.936 82.4217 321.12 77.5374 335.98 69.8955C344.242 65.6423 348.694 63.8895 353.626 62.9314C358.173 62.0667 360.735 62.0901 377.772 63.2118C378.733 63.2819 382.544 63.4922 386.195 63.7026C396.411 64.2634 403.168 65.6656 408.836 68.3765C411.27 69.545 413.768 71.064 421.006 75.7146C427.411 79.8276 432.343 82.8657 435.001 84.338C437.563 85.7168 440.861 87.1657 441.438 87.1657C441.662 87.1657 444.16 85.5065 446.914 83.4967L451.974 79.8043L464.624 65.8993C471.573 58.2574 479.804 49.1666 482.942 45.7313L488.578 39.4449L486.657 37.2014C481.469 31.1954 479.323 25.5165 480.188 20.2584C480.572 17.9915 485.28 6.63385 486.657 4.64743C487.81 3.03493 490.692 1.09525 492.838 0.511008C494.983 -0.0966031 499.403 -0.166715 501.613 0.324048ZM493.863 9.11104C491.429 9.55507 488.354 10.5833 486.977 11.4013C486.241 11.8453 486.241 11.892 486.625 12.8736C486.849 13.4344 487.426 14.416 487.842 15.0703C489.251 17.1035 498.57 28.3209 498.73 28.1807C498.826 28.1106 500.203 26.6149 501.773 24.8388C505.936 20.1415 509.138 15.0937 509.843 12.2192C509.971 11.5882 509.843 11.3779 509.01 10.8638C505.392 8.64365 499.851 7.9893 493.863 9.11104Z" fill="#FF1E46"/>
<path d="M21.4579 15.1577L18.5719 14.6767V12.3827H24.0849C24.9236 12.3827 26.0089 12.3334 27.3409 12.2347C27.6616 12.21 28.044 12.1854 28.488 12.1607C28.9319 12.136 29.4499 12.1237 30.042 12.1237C33.7666 12.1237 36.369 12.654 37.849 13.7147C39.3536 14.7507 40.106 16.3047 40.106 18.3767C40.106 20.202 39.551 21.7314 38.441 22.9647C37.3556 24.1734 35.925 24.9134 34.149 25.1847C36.5909 25.16 38.5026 25.715 39.884 26.8497C41.29 27.9844 41.993 29.563 41.993 31.5857C41.993 34.151 41.0926 36.2107 39.292 37.7647C37.4913 39.3187 34.4819 40.0957 30.2639 40.0957C29.154 40.0957 28.1303 40.0587 27.1929 39.9847C26.9463 39.9847 26.5269 39.96 25.9349 39.9107C25.3429 39.886 24.7386 39.8737 24.1219 39.8737H18.5349V37.6537L21.4579 37.2837V15.1577ZM26.8229 24.3707C27.0943 24.3954 27.6493 24.4077 28.488 24.4077H30.227C31.7316 24.4077 32.8539 23.939 33.5939 23.0017C34.3339 22.0644 34.7039 20.7447 34.7039 19.0427C34.7039 17.4147 34.3216 16.2307 33.557 15.4907C32.7923 14.7507 31.522 14.3807 29.7459 14.3807C29.2773 14.3807 28.3029 14.43 26.8229 14.5287V24.3707ZM26.8229 37.4317C27.3903 37.6537 28.4756 37.7647 30.0789 37.7647C32.1756 37.7647 33.6926 37.2714 34.63 36.2847C35.5673 35.298 36.036 33.8674 36.036 31.9927C36.036 30.192 35.6043 28.9094 34.741 28.1447C33.9023 27.3554 32.558 26.9607 30.708 26.9607C28.636 26.9607 27.3409 26.9854 26.8229 27.0347V37.4317ZM44.8448 37.6907L47.2868 37.3947V22.8167L44.9188 22.1507V19.5977L50.6538 18.8207H50.7648L51.6898 19.5607V20.3747L51.5788 23.3717H51.6898C51.8625 22.8784 52.2695 22.274 52.9108 21.5587C53.5522 20.8187 54.3538 20.1774 55.3158 19.6347C56.3025 19.0674 57.3632 18.7837 58.4978 18.7837C59.0405 18.7837 59.5092 18.8577 59.9038 19.0057V24.5557C59.1638 24.0377 58.2635 23.7787 57.2028 23.7787C55.4022 23.7787 53.8358 24.2597 52.5038 25.2217V37.3577L56.7958 37.6907V39.8737H44.8448V37.6907ZM71.5849 40.2807C68.3289 40.2807 65.8992 39.331 64.2959 37.4317C62.7172 35.5077 61.9279 32.893 61.9279 29.5877C61.9279 27.3677 62.3349 25.4437 63.1489 23.8157C63.9875 22.1877 65.1592 20.942 66.6639 20.0787C68.1685 19.2154 69.9075 18.7837 71.8809 18.7837C74.3475 18.7837 76.2469 19.4374 77.5789 20.7447C78.9109 22.0274 79.6015 23.865 79.6509 26.2577C79.6509 27.8857 79.5522 29.0944 79.3549 29.8837H67.3299C67.4285 32.1284 67.9589 33.8797 68.9209 35.1377C69.8829 36.371 71.2519 36.9877 73.0279 36.9877C73.9899 36.9877 74.9765 36.8274 75.9879 36.5067C77.0239 36.186 77.8379 35.8037 78.4299 35.3597L79.3549 37.3947C78.6889 38.11 77.6035 38.776 76.0989 39.3927C74.6189 39.9847 73.1142 40.2807 71.5849 40.2807ZM74.4709 27.6637C74.5202 26.973 74.5449 26.4427 74.5449 26.0727C74.5449 22.792 73.4472 21.1517 71.2519 21.1517C70.0432 21.1517 69.1059 21.6327 68.4399 22.5947C67.7739 23.5567 67.4039 25.2464 67.3299 27.6637H74.4709ZM82.1966 34.1017C82.1966 31.857 83.319 30.1674 85.5636 29.0327C87.833 27.898 90.756 27.3184 94.3326 27.2937V26.4427C94.3326 25.4314 94.2216 24.642 93.9996 24.0747C93.8023 23.5074 93.42 23.088 92.8526 22.8167C92.31 22.5207 91.5083 22.3727 90.4476 22.3727C89.239 22.3727 88.1536 22.533 87.1916 22.8537C86.2296 23.1497 85.2306 23.5444 84.1946 24.0377L83.0476 21.6697C83.4176 21.349 84.0343 20.9667 84.8976 20.5227C85.7856 20.0787 86.834 19.6964 88.0426 19.3757C89.2513 19.0304 90.497 18.8577 91.7796 18.8577C93.679 18.8577 95.159 19.1044 96.2196 19.5977C97.305 20.091 98.082 20.8804 98.5506 21.9657C99.0193 23.051 99.2536 24.5064 99.2536 26.3317V37.6537H101.252V39.7257C100.758 39.849 100.055 39.9724 99.1426 40.0957C98.23 40.219 97.4283 40.2807 96.7376 40.2807C95.899 40.2807 95.3316 40.1574 95.0356 39.9107C94.7643 39.664 94.6286 39.1584 94.6286 38.3937V37.3947C93.9626 38.1347 93.0993 38.8007 92.0386 39.3927C90.978 39.9847 89.7816 40.2807 88.4496 40.2807C87.315 40.2807 86.2666 40.0464 85.3046 39.5777C84.3673 39.0844 83.615 38.3814 83.0476 37.4687C82.4803 36.5314 82.1966 35.409 82.1966 34.1017ZM90.8176 37.2097C91.3356 37.2097 91.9276 37.0617 92.5936 36.7657C93.2596 36.445 93.8393 36.0627 94.3326 35.6187V29.5507C92.1126 29.5507 90.4476 29.933 89.3376 30.6977C88.2523 31.4377 87.7096 32.3997 87.7096 33.5837C87.7096 34.7677 87.981 35.668 88.5236 36.2847C89.091 36.9014 89.8556 37.2097 90.8176 37.2097ZM107.668 36.8397C107.865 37.1357 108.309 37.4194 109 37.6907C109.715 37.9374 110.43 38.0607 111.146 38.0607C112.305 38.0607 113.168 37.8264 113.736 37.3577C114.328 36.8644 114.624 36.223 114.624 35.4337C114.624 34.6197 114.266 33.966 113.551 33.4727C112.835 32.9547 111.627 32.3257 109.925 31.5857L108.889 31.1417C107.187 30.4264 105.916 29.563 105.078 28.5517C104.239 27.5404 103.82 26.233 103.82 24.6297C103.82 23.5197 104.153 22.533 104.819 21.6697C105.485 20.7817 106.422 20.091 107.631 19.5977C108.839 19.1044 110.233 18.8577 111.812 18.8577C112.971 18.8577 113.958 18.9317 114.772 19.0797C115.61 19.2277 116.486 19.425 117.399 19.6717C117.892 19.8444 118.262 19.943 118.509 19.9677V24.8147H115.586L114.735 22.0027C114.587 21.756 114.254 21.534 113.736 21.3367C113.218 21.1394 112.626 21.0407 111.96 21.0407C110.948 21.0407 110.134 21.2627 109.518 21.7067C108.926 22.126 108.63 22.718 108.63 23.4827C108.63 24.1734 108.839 24.753 109.259 25.2217C109.678 25.6657 110.134 26.011 110.628 26.2577C111.121 26.5044 112.034 26.9114 113.366 27.4787C114.698 28.046 115.795 28.5887 116.659 29.1067C117.547 29.6247 118.274 30.303 118.842 31.1417C119.434 31.9557 119.73 32.9547 119.73 34.1387C119.73 35.964 119.014 37.444 117.584 38.5787C116.153 39.7134 114.093 40.2807 111.405 40.2807C110.147 40.2807 109.012 40.1697 108.001 39.9477C107.014 39.7257 105.867 39.4297 104.56 39.0597L103.746 38.8007V33.9167H106.817L107.668 36.8397ZM128.963 40.2067C127.409 40.2067 126.262 39.849 125.522 39.1337C124.782 38.4184 124.412 37.2837 124.412 35.7297V22.1507H122.007V20.2267C122.205 20.1527 122.562 20.0294 123.08 19.8567C123.598 19.6594 123.993 19.499 124.264 19.3757C124.684 19.055 125.041 18.5 125.337 17.7107C125.559 17.1927 125.966 15.91 126.558 13.8627H129.518L129.666 19.3017H135.327V22.1507H129.703V32.5477C129.703 33.929 129.74 34.9034 129.814 35.4707C129.888 36.038 130.049 36.408 130.295 36.5807C130.542 36.7287 130.974 36.8027 131.59 36.8027C132.207 36.8027 132.848 36.741 133.514 36.6177C134.18 36.4697 134.735 36.297 135.179 36.0997L135.882 38.1717C135.192 38.6897 134.18 39.1584 132.848 39.5777C131.516 39.997 130.221 40.2067 128.963 40.2067ZM158.989 40.2807C154.796 40.2807 151.589 39.035 149.369 36.5437C147.149 34.0277 146.039 30.599 146.039 26.2577C146.039 23.3964 146.619 20.905 147.778 18.7837C148.962 16.6377 150.578 14.985 152.625 13.8257C154.672 12.6664 156.991 12.0867 159.581 12.0867C160.666 12.0867 161.715 12.1607 162.726 12.3087C163.737 12.432 164.934 12.6047 166.315 12.8267C167.351 12.9994 167.918 13.0857 168.017 13.0857L167.61 20.7077H164.206L163.059 15.4167C162.788 15.1454 162.319 14.9234 161.653 14.7507C160.987 14.578 160.136 14.4917 159.1 14.4917C157.003 14.4917 155.314 15.466 154.031 17.4147C152.773 19.3387 152.144 22.1384 152.144 25.8137C152.144 29.3657 152.748 32.264 153.957 34.5087C155.166 36.7534 156.929 37.8757 159.248 37.8757C160.358 37.8757 161.209 37.777 161.801 37.5797C162.418 37.3577 162.936 37.0494 163.355 36.6547L164.983 32.8437L168.091 33.1397L167.351 38.8747C166.833 38.924 166.315 39.0227 165.797 39.1707C165.304 39.294 164.995 39.368 164.872 39.3927C163.885 39.664 162.96 39.8737 162.097 40.0217C161.258 40.1944 160.222 40.2807 158.989 40.2807ZM170.577 34.1017C170.577 31.857 171.7 30.1674 173.944 29.0327C176.214 27.898 179.137 27.3184 182.713 27.2937V26.4427C182.713 25.4314 182.602 24.642 182.38 24.0747C182.183 23.5074 181.801 23.088 181.233 22.8167C180.691 22.5207 179.889 22.3727 178.828 22.3727C177.62 22.3727 176.534 22.533 175.572 22.8537C174.61 23.1497 173.611 23.5444 172.575 24.0377L171.428 21.6697C171.798 21.349 172.415 20.9667 173.278 20.5227C174.166 20.0787 175.215 19.6964 176.423 19.3757C177.632 19.0304 178.878 18.8577 180.16 18.8577C182.06 18.8577 183.54 19.1044 184.6 19.5977C185.686 20.091 186.463 20.8804 186.931 21.9657C187.4 23.051 187.634 24.5064 187.634 26.3317V37.6537H189.632V39.7257C189.139 39.849 188.436 39.9724 187.523 40.0957C186.611 40.219 185.809 40.2807 185.118 40.2807C184.28 40.2807 183.712 40.1574 183.416 39.9107C183.145 39.664 183.009 39.1584 183.009 38.3937V37.3947C182.343 38.1347 181.48 38.8007 180.419 39.3927C179.359 39.9847 178.162 40.2807 176.83 40.2807C175.696 40.2807 174.647 40.0464 173.685 39.5777C172.748 39.0844 171.996 38.3814 171.428 37.4687C170.861 36.5314 170.577 35.409 170.577 34.1017ZM179.198 37.2097C179.716 37.2097 180.308 37.0617 180.974 36.7657C181.64 36.445 182.22 36.0627 182.713 35.6187V29.5507C180.493 29.5507 178.828 29.933 177.718 30.6977C176.633 31.4377 176.09 32.3997 176.09 33.5837C176.09 34.7677 176.362 35.668 176.904 36.2847C177.472 36.9014 178.236 37.2097 179.198 37.2097ZM194.014 22.8167L191.646 22.1507V19.5977L197.788 18.8207H197.899L198.824 19.5607V21.0037L198.787 21.8917C199.65 21.0777 200.772 20.3747 202.154 19.7827C203.535 19.1907 204.929 18.8947 206.335 18.8947C207.839 18.8947 209.011 19.1784 209.85 19.7457C210.713 20.2884 211.33 21.1517 211.7 22.3357C212.07 23.5197 212.255 25.123 212.255 27.1457V37.3577L214.512 37.6537V39.8737H204.966V37.6537L206.964 37.3577V27.1457C206.964 25.863 206.877 24.864 206.705 24.1487C206.532 23.4087 206.211 22.8784 205.743 22.5577C205.299 22.2124 204.657 22.0397 203.819 22.0397C202.413 22.0397 200.908 22.644 199.305 23.8527V37.3207L201.525 37.6537V39.8737H191.868V37.6537L194.014 37.3207V22.8167ZM216.645 29.6987C216.645 27.5774 217.064 25.6904 217.903 24.0377C218.766 22.385 219.987 21.1024 221.566 20.1897C223.169 19.2524 225.032 18.7837 227.153 18.7837C228.14 18.7837 228.991 18.8577 229.706 19.0057C230.421 19.1537 231.223 19.351 232.111 19.5977L233.184 19.8937L232.962 26.2207H229.743L228.818 22.1507C228.67 21.5094 227.942 21.1887 226.635 21.1887C225.254 21.1887 224.168 21.793 223.379 23.0017C222.614 24.2104 222.22 26.0974 222.195 28.6627C222.195 31.376 222.664 33.4604 223.601 34.9157C224.538 36.3464 225.784 37.0617 227.338 37.0617C229.213 37.0617 230.939 36.556 232.518 35.5447L233.369 37.4687C232.728 38.1594 231.741 38.8007 230.409 39.3927C229.102 39.9847 227.683 40.2807 226.154 40.2807C222.997 40.2807 220.616 39.3064 219.013 37.3577C217.434 35.409 216.645 32.856 216.645 29.6987ZM245.637 40.2807C242.381 40.2807 239.951 39.331 238.348 37.4317C236.769 35.5077 235.98 32.893 235.98 29.5877C235.98 27.3677 236.387 25.4437 237.201 23.8157C238.039 22.1877 239.211 20.942 240.716 20.0787C242.22 19.2154 243.959 18.7837 245.933 18.7837C248.399 18.7837 250.299 19.4374 251.631 20.7447C252.963 22.0274 253.653 23.865 253.703 26.2577C253.703 27.8857 253.604 29.0944 253.407 29.8837H241.382C241.48 32.1284 242.011 33.8797 242.973 35.1377C243.935 36.371 245.304 36.9877 247.08 36.9877C248.042 36.9877 249.028 36.8274 250.04 36.5067C251.076 36.186 251.89 35.8037 252.482 35.3597L253.407 37.3947C252.741 38.11 251.655 38.776 250.151 39.3927C248.671 39.9847 247.166 40.2807 245.637 40.2807ZM248.523 27.6637C248.572 26.973 248.597 26.4427 248.597 26.0727C248.597 22.792 247.499 21.1517 245.304 21.1517C244.095 21.1517 243.158 21.6327 242.492 22.5947C241.826 23.5567 241.456 25.2464 241.382 27.6637H248.523ZM256.655 37.6907L259.097 37.3947V22.8167L256.729 22.1507V19.5977L262.464 18.8207H262.575L263.5 19.5607V20.3747L263.389 23.3717H263.5C263.673 22.8784 264.08 22.274 264.721 21.5587C265.363 20.8187 266.164 20.1774 267.126 19.6347C268.113 19.0674 269.174 18.7837 270.308 18.7837C270.851 18.7837 271.32 18.8577 271.714 19.0057V24.5557C270.974 24.0377 270.074 23.7787 269.013 23.7787C267.213 23.7787 265.646 24.2597 264.314 25.2217V37.3577L268.606 37.6907V39.8737H256.655V37.6907ZM285.553 15.1577L282.778 14.6767V12.3827H288.18C288.994 12.3827 290.091 12.3334 291.473 12.2347C291.793 12.21 292.274 12.1854 292.916 12.1607C293.582 12.136 294.174 12.1237 294.692 12.1237C299.23 12.1237 302.622 13.2584 304.867 15.5277C307.136 17.797 308.271 21.016 308.271 25.1847C308.271 28.0954 307.703 30.6854 306.569 32.9547C305.459 35.224 303.868 37 301.796 38.2827C299.724 39.5407 297.306 40.1697 294.544 40.1697C293.828 40.1697 292.706 40.1204 291.177 40.0217C289.746 39.923 288.772 39.8737 288.254 39.8737H282.63V37.6537L285.553 37.2837V15.1577ZM290.918 37.3947C291.756 37.6167 292.928 37.7277 294.433 37.7277C296.899 37.6784 298.836 36.6917 300.242 34.7677C301.648 32.819 302.351 29.9084 302.351 26.0357C302.351 22.3604 301.66 19.5237 300.279 17.5257C298.897 15.503 296.751 14.4917 293.841 14.4917C293.224 14.4917 292.632 14.5287 292.065 14.6027C291.522 14.6767 291.14 14.726 290.918 14.7507V37.3947ZM320.323 40.2807C317.067 40.2807 314.637 39.331 313.034 37.4317C311.455 35.5077 310.666 32.893 310.666 29.5877C310.666 27.3677 311.073 25.4437 311.887 23.8157C312.726 22.1877 313.897 20.942 315.402 20.0787C316.907 19.2154 318.646 18.7837 320.619 18.7837C323.086 18.7837 324.985 19.4374 326.317 20.7447C327.649 22.0274 328.34 23.865 328.389 26.2577C328.389 27.8857 328.29 29.0944 328.093 29.8837H316.068C316.167 32.1284 316.697 33.8797 317.659 35.1377C318.621 36.371 319.99 36.9877 321.766 36.9877C322.728 36.9877 323.715 36.8274 324.726 36.5067C325.762 36.186 326.576 35.8037 327.168 35.3597L328.093 37.3947C327.427 38.11 326.342 38.776 324.837 39.3927C323.357 39.9847 321.852 40.2807 320.323 40.2807ZM323.209 27.6637C323.258 26.973 323.283 26.4427 323.283 26.0727C323.283 22.792 322.185 21.1517 319.99 21.1517C318.781 21.1517 317.844 21.6327 317.178 22.5947C316.512 23.5567 316.142 25.2464 316.068 27.6637H323.209ZM337.558 40.2067C336.004 40.2067 334.857 39.849 334.117 39.1337C333.377 38.4184 333.007 37.2837 333.007 35.7297V22.1507H330.602V20.2267C330.799 20.1527 331.157 20.0294 331.675 19.8567C332.193 19.6594 332.588 19.499 332.859 19.3757C333.278 19.055 333.636 18.5 333.932 17.7107C334.154 17.1927 334.561 15.91 335.153 13.8627H338.113L338.261 19.3017H343.922V22.1507H338.298V32.5477C338.298 33.929 338.335 34.9034 338.409 35.4707C338.483 36.038 338.643 36.408 338.89 36.5807C339.137 36.7287 339.568 36.8027 340.185 36.8027C340.802 36.8027 341.443 36.741 342.109 36.6177C342.775 36.4697 343.33 36.297 343.774 36.0997L344.477 38.1717C343.786 38.6897 342.775 39.1584 341.443 39.5777C340.111 39.997 338.816 40.2067 337.558 40.2067ZM355.769 40.2807C352.513 40.2807 350.084 39.331 348.48 37.4317C346.902 35.5077 346.112 32.893 346.112 29.5877C346.112 27.3677 346.519 25.4437 347.333 23.8157C348.172 22.1877 349.344 20.942 350.848 20.0787C352.353 19.2154 354.092 18.7837 356.065 18.7837C358.532 18.7837 360.431 19.4374 361.763 20.7447C363.095 22.0274 363.786 23.865 363.835 26.2577C363.835 27.8857 363.737 29.0944 363.539 29.8837H351.514C351.613 32.1284 352.143 33.8797 353.105 35.1377C354.067 36.371 355.436 36.9877 357.212 36.9877C358.174 36.9877 359.161 36.8274 360.172 36.5067C361.208 36.186 362.022 35.8037 362.614 35.3597L363.539 37.3947C362.873 38.11 361.788 38.776 360.283 39.3927C358.803 39.9847 357.299 40.2807 355.769 40.2807ZM358.655 27.6637C358.705 26.973 358.729 26.4427 358.729 26.0727C358.729 22.792 357.632 21.1517 355.436 21.1517C354.228 21.1517 353.29 21.6327 352.624 22.5947C351.958 23.5567 351.588 25.2464 351.514 27.6637H358.655ZM366.307 29.6987C366.307 27.5774 366.727 25.6904 367.565 24.0377C368.429 22.385 369.65 21.1024 371.228 20.1897C372.832 19.2524 374.694 18.7837 376.815 18.7837C377.802 18.7837 378.653 18.8577 379.368 19.0057C380.084 19.1537 380.885 19.351 381.773 19.5977L382.846 19.8937L382.624 26.2207H379.405L378.48 22.1507C378.332 21.5094 377.605 21.1887 376.297 21.1887C374.916 21.1887 373.831 21.793 373.041 23.0017C372.277 24.2104 371.882 26.0974 371.857 28.6627C371.857 31.376 372.326 33.4604 373.263 34.9157C374.201 36.3464 375.446 37.0617 377 37.0617C378.875 37.0617 380.602 36.556 382.18 35.5447L383.031 37.4687C382.39 38.1594 381.403 38.8007 380.071 39.3927C378.764 39.9847 377.346 40.2807 375.816 40.2807C372.659 40.2807 370.279 39.3064 368.675 37.3577C367.097 35.409 366.307 32.856 366.307 29.6987ZM392.191 40.2067C390.637 40.2067 389.49 39.849 388.75 39.1337C388.01 38.4184 387.64 37.2837 387.64 35.7297V22.1507H385.235V20.2267C385.432 20.1527 385.79 20.0294 386.308 19.8567C386.826 19.6594 387.22 19.499 387.492 19.3757C387.911 19.055 388.269 18.5 388.565 17.7107C388.787 17.1927 389.194 15.91 389.786 13.8627H392.746L392.894 19.3017H398.555V22.1507H392.931V32.5477C392.931 33.929 392.968 34.9034 393.042 35.4707C393.116 36.038 393.276 36.408 393.523 36.5807C393.769 36.7287 394.201 36.8027 394.818 36.8027C395.434 36.8027 396.076 36.741 396.742 36.6177C397.408 36.4697 397.963 36.297 398.407 36.0997L399.11 38.1717C398.419 38.6897 397.408 39.1584 396.076 39.5777C394.744 39.997 393.449 40.2067 392.191 40.2067ZM405.481 15.9347C404.593 15.9347 403.89 15.6757 403.372 15.1577C402.854 14.6397 402.595 13.9737 402.595 13.1597C402.595 12.2224 402.891 11.4454 403.483 10.8287C404.075 10.212 404.865 9.90369 405.851 9.90369C406.838 9.90369 407.59 10.175 408.108 10.7177C408.626 11.2357 408.885 11.8894 408.885 12.6787C408.885 13.6654 408.589 14.4547 407.997 15.0467C407.405 15.6387 406.579 15.9347 405.518 15.9347H405.481ZM403.52 22.8167L400.893 22.1137V19.6347L407.664 18.8207H407.738L408.774 19.5607V37.3577L411.253 37.6537V39.8737H400.93V37.6537L403.52 37.3207V22.8167ZM413.905 29.6247C413.905 27.306 414.362 25.3327 415.274 23.7047C416.212 22.0767 417.457 20.8557 419.011 20.0417C420.565 19.203 422.255 18.7837 424.08 18.7837C427.188 18.7837 429.581 19.7457 431.258 21.6697C432.96 23.569 433.811 26.159 433.811 29.4397C433.811 31.783 433.343 33.781 432.405 35.4337C431.493 37.0617 430.259 38.2827 428.705 39.0967C427.176 39.886 425.486 40.2807 423.636 40.2807C420.553 40.2807 418.16 39.331 416.458 37.4317C414.756 35.5077 413.905 32.9054 413.905 29.6247ZM423.932 37.8757C426.72 37.8757 428.113 35.187 428.113 29.8097C428.113 26.9977 427.78 24.864 427.114 23.4087C426.448 21.9287 425.363 21.1887 423.858 21.1887C420.997 21.1887 419.566 23.8774 419.566 29.2547C419.566 32.0667 419.912 34.2127 420.602 35.6927C421.318 37.148 422.428 37.8757 423.932 37.8757ZM439.247 22.8167L436.879 22.1507V19.5977L443.021 18.8207H443.132L444.057 19.5607V21.0037L444.02 21.8917C444.883 21.0777 446.006 20.3747 447.387 19.7827C448.768 19.1907 450.162 18.8947 451.568 18.8947C453.073 18.8947 454.244 19.1784 455.083 19.7457C455.946 20.2884 456.563 21.1517 456.933 22.3357C457.303 23.5197 457.488 25.123 457.488 27.1457V37.3577L459.745 37.6537V39.8737H450.199V37.6537L452.197 37.3577V27.1457C452.197 25.863 452.111 24.864 451.938 24.1487C451.765 23.4087 451.445 22.8784 450.976 22.5577C450.532 22.2124 449.891 22.0397 449.052 22.0397C447.646 22.0397 446.141 22.644 444.538 23.8527V37.3207L446.758 37.6537V39.8737H437.101V37.6537L439.247 37.3207V22.8167Z" fill="#FF1E46"/>
</svg>
