<svg width="150" height="150" viewBox="0 0 97 99" fill="none" xmlns="http://www.w3.org/2000/svg">
<path d="M6.71538 1.90385C5.03654 2.95096 2.89135 5.14039 1.86538 6.85385C0.0932692 9.9 0 11.7087 0 49.5C0 87.2913 0.0932692 89.1 1.86538 92.1462C2.89135 93.8596 5.03654 96.049 6.71538 97.0962C9.7 98.9048 11.4721 99 48.5 99C85.5279 99 87.3 98.9048 90.2846 97.0962C91.9635 96.049 94.1087 93.8596 95.1346 92.1462C96.9067 89.1 97 87.2913 97 49.5C97 11.7087 96.9067 9.9 95.1346 6.85385C94.1087 5.14039 91.9635 2.95096 90.2846 1.90385C87.3 0.0951943 85.5279 2.02656e-06 48.5 2.02656e-06C11.4721 2.02656e-06 9.7 0.0951943 6.71538 1.90385ZM87.6731 9.51923C89.4452 11.3279 89.5385 12.6606 89.5385 39.6C89.5385 62.0654 89.2587 67.6817 88.4192 66.9202C87.7663 66.4442 85.2481 64.4452 82.8231 62.4462C74.8952 55.9731 71.9106 56.1635 61.7442 63.6837C58.2 66.349 54.749 68.5385 54.0962 68.5385C53.4433 68.5385 49.4327 65.1115 45.1423 60.9231C38.3337 54.2596 36.9346 53.3077 34.0433 53.3077C29.5663 53.3077 28.3538 54.0692 17.5346 63.3981C12.4981 67.7769 8.11442 71.3942 7.92788 71.3942C7.64808 71.3942 7.46154 57.8769 7.46154 41.4087C7.46154 12.6606 7.55481 11.3279 9.32692 9.51923C11.099 7.71058 12.4048 7.61539 48.5 7.61539C84.5952 7.61539 85.901 7.71058 87.6731 9.51923ZM40.5721 67.6817C47.7538 75.1067 51.951 77.5817 56.0548 76.6298C57.4538 76.249 61.9308 73.4885 65.8481 70.3471C69.7654 67.301 73.4029 65.0163 74.0558 65.3971C74.6154 65.6827 78.3462 68.6337 82.2635 71.775L89.5385 77.5817V82.5317C89.5385 86.3394 89.0721 88.0529 87.6731 89.4808C85.901 91.2894 84.5952 91.3846 48.5 91.3846C12.4048 91.3846 11.099 91.2894 9.32692 89.4808C8.30096 88.4337 7.46154 86.3394 7.46154 84.8163C7.46154 82.4365 9.14038 80.6279 19.8663 71.4894C26.5817 65.6827 32.6442 60.9231 33.1106 60.9231C33.6702 60.9231 37.0279 63.9692 40.5721 67.6817Z" fill="#FF1E46"/>
</svg>
