<svg viewBox="0 0 496 260" fill="none" xmlns="http://www.w3.org/2000/svg">
<path d="M441.636 33.7478C449.065 36.3364 454.083 45.0731 461.02 67.454C465.448 81.7455 466.038 91.6147 463.086 101.754C462.644 103.21 460.036 108.333 457.232 113.187C454.427 117.986 451.918 122.463 451.623 123.056C451.18 123.973 454.083 129.581 473.566 165.175L496 206.216L492.409 222.988C490.441 232.264 488.768 240.461 488.62 241.324C488.522 242.133 488.276 242.888 488.079 242.996C487.931 243.158 484.98 238.196 481.585 232.102C443.85 164.097 436.273 150.56 435.929 150.56C435.781 150.56 434.65 152.34 433.469 154.497C432.239 156.6 430.369 159.944 429.238 161.885C428.106 163.827 422.006 174.343 415.708 185.345C409.411 196.293 403.36 206.755 402.277 208.535C393.323 223.042 381.811 235.068 373.791 238.358C368.134 240.677 352.931 242.187 336.253 242.025C327.397 241.918 327.397 241.918 322.133 239.976C313.622 236.74 302.651 230.377 293.795 223.527C292.073 222.179 286.12 217.11 280.511 212.148C268.753 201.794 261.669 195.969 254.141 190.468L248.828 186.531L246.614 187.718C245.384 188.365 239.824 191.763 234.216 195.268C198.006 218.027 194.906 219.698 183.492 222.449C174.538 224.66 150.53 228.597 140.444 229.622L137 229.945L140.444 227.95C148.709 223.204 164.354 211.932 187.182 194.297C199.875 184.482 206.714 180.437 214.291 178.226C221.277 176.231 225.213 176.285 251.386 178.873C252.862 179.035 258.717 179.521 264.325 180.006C280.019 181.3 290.4 184.536 299.108 190.792C302.847 193.488 306.685 196.994 317.804 207.726C327.643 217.218 335.22 224.229 339.303 227.626C343.239 230.808 348.307 234.152 349.192 234.152C349.537 234.152 353.374 230.323 357.605 225.685L365.379 217.164L384.812 185.075C395.488 167.44 408.132 146.461 412.953 138.534L421.612 124.027L418.66 118.849C410.69 104.989 407.394 91.8843 408.722 79.7501C409.313 74.5189 416.545 48.3089 418.66 43.7248C420.431 40.0037 424.859 35.5275 428.156 34.1792C431.452 32.7771 438.241 32.6153 441.636 33.7478ZM429.73 54.0255C425.991 55.0501 421.268 57.4231 419.152 59.3106C418.021 60.3353 418.021 60.4431 418.611 62.7082C418.955 64.0025 419.841 66.2676 420.481 67.7776C422.645 72.4695 436.962 98.3559 437.208 98.0323C437.356 97.8706 439.471 94.419 441.882 90.3204C448.278 79.4804 453.197 67.8315 454.28 61.1982C454.477 59.742 454.28 59.2567 453.001 58.0702C447.441 52.9469 438.93 51.4368 429.73 54.0255Z" fill="#FF1E46"/>
<path d="M281.828 33.7113C281.181 34.1957 280.857 35.1108 280.857 36.4028C280.857 38.0177 280.642 38.3945 279.833 38.3945C278.485 38.3945 278.485 39.2558 279.833 39.6326C280.75 39.8479 280.857 40.44 280.804 46.5228C280.804 51.1522 280.965 53.1978 281.397 53.3593C281.882 53.5208 282.044 51.6367 282.044 46.5228V39.4711H283.391C284.146 39.4711 284.739 39.2019 284.739 38.9328C284.739 38.6098 284.146 38.3945 283.391 38.3945C282.259 38.3945 282.044 38.1253 282.044 36.7796C282.044 35.5415 282.367 35.0032 283.391 34.5187C284.146 34.1957 284.739 33.7113 284.739 33.4421C284.739 32.7423 282.906 32.9038 281.828 33.7113Z" fill="#FF1E46"/>
<path d="M204.948 43.5084V53.467H209.53C213.25 53.467 214.113 53.3055 214.113 52.6595C214.113 52.0135 213.304 51.8521 210.069 51.8521H205.972L206.134 42.7009C206.242 35.6492 206.134 33.5498 205.649 33.5498C205.109 33.5498 204.948 35.9183 204.948 43.5084Z" fill="#FF1E46"/>
<path d="M235.786 35.8107C235.84 37.1026 235.678 38.6098 235.409 39.202C235.031 40.1709 235.085 40.2247 235.894 39.4173C237.08 38.3407 237.511 33.5498 236.433 33.5498C235.894 33.5498 235.678 34.1958 235.786 35.8107Z" fill="#FF1E46"/>
<path d="M264.791 36.8872C264.791 40.0632 264.737 40.1709 263.767 39.2558C263.066 38.6098 262.042 38.3945 260.64 38.5021C258.915 38.6636 258.43 38.9328 257.675 40.5477C255.896 44.1005 256.65 51.7444 258.861 52.9286C260.478 53.7899 262.527 53.5746 263.713 52.3903L264.791 51.3137V52.4442C264.791 53.0901 265.061 53.4669 265.492 53.3593C266.463 52.9825 266.517 33.5498 265.492 33.5498C265.007 33.5498 264.791 34.4649 264.791 36.8872ZM264.09 41.4628C265.169 44.1543 264.845 49.7527 263.497 51.2599C262.904 51.9059 261.934 52.3903 261.233 52.3903C259.184 52.3903 258.322 50.4524 258.322 45.9307C258.322 41.086 259.13 39.4711 261.61 39.4711C262.958 39.4711 263.39 39.7941 264.09 41.4628Z" fill="#FF1E46"/>
<path d="M228.669 36.1875C228.669 37.9639 228.454 38.3407 227.483 38.556L226.243 38.7713L227.483 39.202C228.616 39.5788 228.669 39.8479 228.669 45.6616C228.669 50.5063 228.831 51.9597 229.532 52.6057C230.61 53.7361 232.983 53.7361 232.983 52.6057C232.983 52.175 232.767 51.9059 232.497 52.0674C232.228 52.2827 231.635 52.2289 231.149 52.0674C230.449 51.7982 230.287 50.7216 230.287 45.6078V39.4711H231.635C232.389 39.4711 232.983 39.202 232.983 38.9328C232.983 38.6098 232.389 38.3945 231.635 38.3945C230.449 38.3945 230.287 38.1792 230.287 36.2413C230.287 34.6802 230.071 34.0881 229.478 34.0881C228.885 34.0881 228.669 34.6802 228.669 36.1875Z" fill="#FF1E46"/>
<path d="M309 36.2413C309 38.0177 308.838 38.3945 307.922 38.3945C307.329 38.3945 306.844 38.6098 306.844 38.9328C306.844 39.202 307.329 39.4711 307.922 39.4711C308.946 39.4711 309 39.8479 309 45.6078C309 52.3365 309.431 53.467 312.019 53.467C313.69 53.467 313.69 52.6057 311.965 52.175C310.617 51.8521 310.617 51.7982 310.617 45.6616V39.4711H311.965C312.72 39.4711 313.313 39.202 313.313 38.9328C313.313 38.6098 312.72 38.3945 311.965 38.3945C310.779 38.3945 310.617 38.1792 310.617 36.2413C310.617 34.6802 310.402 34.0881 309.809 34.0881C309.216 34.0881 309 34.6802 309 36.2413Z" fill="#FF1E46"/>
<path d="M219.558 38.3406C217.078 38.9866 216.054 41.1398 216.054 45.9307C216.054 51.2599 217.132 53.0901 220.259 53.3593C222.577 53.5746 223.979 52.6057 224.842 50.1833C225.273 48.9452 225.219 48.6222 224.626 48.6222C224.249 48.6222 223.656 49.322 223.386 50.2371C222.631 52.3365 220.367 52.9825 218.857 51.4752C218.264 50.8831 217.671 49.3758 217.51 48.1377L217.186 45.9307H221.337H225.435V44.3158C225.435 40.2247 222.793 37.587 219.558 38.3406ZM222.955 40.6553C223.979 42.1088 224.087 44.1005 223.17 44.4235C222.793 44.5311 221.391 44.6388 220.044 44.585C217.671 44.585 217.617 44.5311 217.725 42.8086C217.725 41.8396 218.103 40.7092 218.426 40.2785C219.45 39.0404 221.984 39.2558 222.955 40.6553Z" fill="#FF1E46"/>
<path d="M299.457 38.5021C298.271 38.8251 297.624 39.4173 297.193 40.6553C296.438 42.7547 296.438 42.7009 297.301 42.7009C297.678 42.7009 298.271 41.9473 298.595 41.086C299.08 39.7941 299.511 39.4711 300.805 39.4711C302.8 39.4711 303.717 40.5477 303.501 42.4856C303.393 43.7775 302.854 44.1543 300.374 45.1233C296.762 46.5228 295.683 48.1916 296.6 50.9908C297.463 53.6284 300.59 54.4359 302.692 52.5518C303.663 51.6367 303.717 51.6367 304.202 52.5518C304.525 53.0363 305.118 53.4669 305.496 53.4669C306.412 53.4669 306.574 52.6057 305.765 52.1212C305.442 51.9597 305.226 49.3758 305.226 46.3075C305.226 38.9328 304.04 37.3179 299.457 38.5021ZM303.609 47.5456C303.609 51.852 300.374 54.0591 298.433 51.0446C296.816 48.5146 298.433 46.5228 303.501 44.9079C303.555 44.8541 303.609 46.0384 303.609 47.5456Z" fill="#FF1E46"/>
<path d="M240.315 39.5788C239.398 40.8707 239.183 43.0777 239.883 44.1543C240.099 44.4773 241.609 45.4463 243.226 46.3075C246.461 47.9763 247.323 49.8065 245.652 51.5291C243.927 53.2516 240.53 51.9059 240.53 49.5374C240.53 49.0529 240.207 48.6222 239.776 48.6222C238.751 48.6222 239.183 51.2061 240.369 52.498C241.555 53.7899 245.436 53.7899 246.569 52.498C249.049 49.6988 248.132 46.8997 244.035 45.1233C241.609 44.0467 241.069 43.5622 241.069 42.4856C241.069 40.1709 241.609 39.4711 243.496 39.4711C245.005 39.4711 245.383 39.7403 245.868 41.086C246.515 43.0239 247.539 43.2392 247.539 41.4628C247.539 39.5788 245.922 38.3945 243.334 38.3945C241.663 38.3945 240.908 38.6637 240.315 39.5788Z" fill="#FF1E46"/>
<path d="M269.643 40.1171C268.835 41.4628 268.565 42.8624 268.565 45.8231C268.565 51.5829 269.751 53.467 273.417 53.467C274.873 53.467 277.191 51.7444 277.191 50.7216C277.191 50.5063 277.353 49.968 277.515 49.4835C278.162 47.8148 276.383 48.6222 275.574 50.3986C274.981 51.6367 274.334 52.175 273.31 52.2827C271.584 52.498 270.452 51.0446 269.913 47.9225L269.536 45.9307H273.687H277.892L277.569 43.1854C277.137 39.5249 276.059 38.3945 273.04 38.3945C270.991 38.3945 270.56 38.6098 269.643 40.1171ZM275.143 40.3862C276.221 41.3552 276.436 44.1005 275.466 44.4235C275.089 44.5311 273.687 44.6388 272.393 44.6388C269.697 44.585 269.32 43.939 270.506 41.1937C271.045 39.8479 271.53 39.4711 272.663 39.4711C273.471 39.4711 274.603 39.8479 275.143 40.3862Z" fill="#FF1E46"/>
<path d="M286.95 39.7941C284.847 42.4317 284.739 49.1067 286.788 51.7982C287.489 52.7671 288.405 53.2516 289.807 53.3593C292.125 53.5746 293.527 52.6057 294.39 50.1833C294.821 48.8914 294.767 48.6222 294.12 48.6222C293.689 48.6222 293.042 49.322 292.772 50.2371C291.317 54.2744 286.896 52.2288 286.896 47.5456V45.9307H290.939C295.36 45.9307 295.36 45.9307 294.659 42.2703C294.12 39.7402 292.61 38.3945 290.13 38.3945C288.513 38.3945 287.812 38.7175 286.95 39.7941ZM292.233 40.1709C292.557 40.6015 292.988 41.6243 293.15 42.5394C293.527 44.4235 293.096 44.6388 289.591 44.6388C287.489 44.585 287.165 44.4235 287.003 43.3469C286.734 41.409 288.297 39.4711 290.077 39.4711C290.939 39.4711 291.91 39.7941 292.233 40.1709Z" fill="#FF1E46"/>
<path d="M186.078 76.0756V99.7609H190.122H194.165V97.7692V95.7237L195.783 97.6616C199.557 102.237 207.05 101.376 209.746 96.1005C211.525 92.6553 212.118 87.9721 211.849 79.7361C211.579 71.1233 210.501 67.5166 207.59 65.0404C204.355 62.4028 198.694 62.7796 196.052 65.9017L194.704 67.5705V59.9804V52.3903H190.391H186.078V76.0756ZM201.875 71.1233C203.33 72.6843 204.031 77.9059 203.708 84.2578C203.384 90.556 202.522 93.086 200.419 93.6243C198.424 94.1088 197.346 93.7319 196.106 92.0632C195.136 90.7175 194.974 89.6409 194.812 83.3965C194.597 76.0756 195.136 72.469 196.645 70.9618C197.777 69.8313 200.797 69.939 201.875 71.1233Z" fill="#FF1E46"/>
<path d="M320.322 59.1191V64.233H318.165H316.009V67.1937V70.1543H318.165H320.322L320.376 82.3738C320.376 95.6698 320.753 97.9307 323.017 99.0611C323.772 99.438 326.36 99.7609 329.11 99.7609H333.8V96.5311V93.3013H331.967C328.894 93.3013 328.732 92.7092 328.57 80.8665L328.409 70.1543H331.104H333.8V67.2475V64.2868L331.266 64.1253L328.678 63.9638V58.9576V54.0052H324.527H320.322V59.1191Z" fill="#FF1E46"/>
<path d="M228.831 63.9638C227.861 64.3406 226.567 65.5787 225.866 66.6015C224.249 69.0777 223.71 69.0239 223.925 66.4939L224.087 64.5021L220.151 64.3406L216.27 64.1792V81.997V99.7609H220.313H224.356V88.1336C224.356 78.6595 224.518 76.1833 225.219 74.7299C226.19 72.6305 228.777 71.2309 231.581 71.2309H233.522V67.1936V63.1564H232.066C231.203 63.2102 229.802 63.5332 228.831 63.9638Z" fill="#FF1E46"/>
<path d="M244.574 63.4255C244.304 63.5332 243.388 63.7485 242.525 63.91C240.261 64.4483 236.918 67.732 235.84 70.585C235.031 72.6843 234.87 74.7299 234.87 82.2661C234.87 91.2019 234.923 91.4711 236.379 94.4856C237.296 96.3696 238.536 97.9845 239.614 98.6305C244.574 101.645 252.068 101.161 255.68 97.5539C257.621 95.616 258.268 94.0549 259.076 89.6409L259.4 87.9183H255.626H251.906L251.205 90.3945C250.289 93.6243 248.186 95.4007 246.245 94.4856C244.035 93.5166 243.064 91.4173 242.795 87.1108L242.525 83.1274L250.99 83.2351C256.273 83.2889 259.4 83.1274 259.454 82.8044C259.723 80.1667 259.184 73.6533 258.537 71.2309C257.513 67.6781 254.656 64.6098 251.583 63.7485C249.534 63.2102 245.76 62.9949 244.574 63.4255ZM249.103 69.616C250.396 70.262 251.313 72.6305 251.475 75.5912L251.583 77.9597L247.162 78.1212L242.687 78.2827V76.0756C242.687 70.9618 245.814 67.8396 249.103 69.616Z" fill="#FF1E46"/>
<path d="M270.506 63.6947C269.374 64.0177 267.756 64.7175 266.948 65.3096C265.115 66.6015 263.174 70.585 263.174 73.115V74.999H266.948H270.722V73.3841C270.722 70.3696 274.657 67.9473 276.976 69.5084C278.916 70.8003 279.402 74.9452 277.784 76.5601C277.191 77.1523 274.603 78.2289 271.962 79.0363C269.374 79.8438 266.463 81.0819 265.492 81.7817C263.066 83.6119 261.88 87.057 262.203 91.4173C262.527 95.2392 263.713 97.7154 266.031 99.438C269.05 101.645 276.113 100.353 277.784 97.2848L278.485 95.8852L279.132 97.7154L279.725 99.4918L283.876 99.6533C287.219 99.7609 287.974 99.6533 287.596 99.115C287.381 98.7382 287.057 92.0094 286.896 84.1502C286.572 67.9473 286.356 66.9783 282.529 64.8251C280.049 63.4255 273.903 62.8872 270.506 63.6947ZM278.809 86.5725C278.809 90.8251 278.701 91.2558 277.353 92.7092C275.196 95.0777 273.256 95.3469 271.584 93.6243C270.452 92.5477 270.183 91.7402 270.183 89.5332C270.183 86.2496 271.53 84.527 274.927 83.6119C276.167 83.2889 277.299 82.8044 277.461 82.5353C278.377 81.0819 278.809 82.4276 278.809 86.5725Z" fill="#FF1E46"/>
<path d="M299.026 63.6409C293.15 65.1481 290.077 69.6698 290.885 75.4835C291.532 80.2206 293.473 82.0508 300.859 84.9038C303.07 85.7651 305.28 86.8955 305.819 87.4338C307.167 88.7796 307.167 92.2785 305.927 93.4628C302.854 96.2081 298.271 94.2703 298.217 90.1792V88.4566H294.39H290.508L290.831 91.6864C290.993 93.5166 291.532 95.5622 292.017 96.3158C294.174 99.6533 299.943 101.322 305.55 100.299C312.343 99.0073 315.362 95.0777 314.823 88.2951C314.391 82.8044 312.558 80.9742 305.172 78.498C303.016 77.7444 300.697 76.6139 299.997 75.968C298.217 74.3531 298.325 71.6616 300.158 70.2081C302.962 68.0011 305.927 69.1854 306.628 72.7382L307.005 74.4607H310.671C314.391 74.4607 314.391 74.4607 314.391 72.9535C314.337 69.4545 312.235 65.9017 309.377 64.3945C307.598 63.4794 301.344 62.9949 299.026 63.6409Z" fill="#FF1E46"/>
<path d="M192.817 109.074C189.852 110.258 188.828 111.065 187.48 113.38C185.755 116.394 185 120.324 185 126.299C185.054 138.465 188.45 143.363 196.861 143.363C204.031 143.31 207.428 140.241 208.452 132.705L208.83 129.906H205.056H201.336L200.958 132.705C200.096 139.003 195.136 139.972 193.41 134.212C192.548 131.359 192.386 121.993 193.141 118.548C193.68 116.125 195.675 113.757 197.184 113.757C198.694 113.757 200.527 116.233 200.904 118.817L201.282 121.293H205.002C209.153 121.293 209.153 121.347 208.129 116.987C207.32 113.488 205.271 110.635 202.63 109.397C200.042 108.266 195.351 108.105 192.817 109.074Z" fill="#FF1E46"/>
<path d="M218.157 109.074C214.113 110.688 212.011 113.488 211.957 117.363V119.14H215.461C218.857 119.14 218.965 119.086 218.965 117.794C218.965 116.179 221.176 113.757 222.631 113.757C223.224 113.757 224.303 114.241 225.111 114.887C226.19 115.749 226.513 116.448 226.513 118.063C226.513 119.194 226.136 120.486 225.704 120.97C225.273 121.401 222.793 122.423 220.205 123.177C212.28 125.599 209.8 129.475 211.31 136.904C212.172 141.156 214.652 143.363 218.426 143.363C221.661 143.363 224.572 142.287 225.435 140.726C226.244 139.165 226.944 139.326 227.16 141.049C227.322 142.502 227.43 142.556 231.204 142.717L235.085 142.879L234.546 141.103C234.277 140.134 234.061 134.105 234.061 127.753C234.061 121.401 233.791 115.318 233.522 114.241C232.875 111.98 230.718 109.827 228.184 108.966C225.866 108.212 220.259 108.266 218.157 109.074ZM226.513 130.39C226.513 134.105 226.351 134.912 225.327 136.043C223.817 137.711 221.23 138.357 219.882 137.334C218.588 136.366 218.103 132.544 218.965 130.498C219.451 129.314 220.259 128.614 222.146 127.968C223.494 127.43 224.842 126.838 225.165 126.568C226.244 125.599 226.513 126.299 226.513 130.39Z" fill="#FF1E46"/>
<path d="M250.504 109.181C249.642 109.666 248.186 110.796 247.377 111.765L245.868 113.488L246.03 111.604L246.191 109.72L242.579 109.558L238.913 109.397V126.138V142.825H242.687H246.461V131.036C246.461 119.086 246.73 116.879 248.51 115.587C249.75 114.618 251.96 114.672 253.254 115.587C254.224 116.287 254.278 117.202 254.44 129.583L254.602 142.825H258.322H262.096V128.56C262.096 112.626 261.88 111.334 258.753 109.45C256.597 108.158 252.823 108.051 250.504 109.181Z" fill="#FF1E46"/>
<path d="M273.687 109.074C270.722 110.258 269.697 111.065 268.35 113.38C266.624 116.394 265.87 120.324 265.87 126.299C265.923 138.357 269.32 143.363 277.515 143.363C284.901 143.363 288.351 140.241 289.376 132.705L289.753 129.906H285.979H282.205L281.882 132.705C281.343 137.011 278.539 139.219 275.897 137.281C274.28 136.096 273.525 131.79 273.633 124.792C273.795 117.633 274.388 115.641 276.76 114.349C278.108 113.595 278.323 113.595 279.725 114.618C280.857 115.479 281.343 116.448 281.72 118.494L282.259 121.293H285.925C290.023 121.293 290.023 121.347 288.998 116.987C288.19 113.488 286.141 110.635 283.499 109.397C280.911 108.266 276.221 108.105 273.687 109.074Z" fill="#FF1E46"/>
<path d="M297.948 109.666C293.096 112.142 291.586 116.018 291.586 125.922C291.586 133.943 292.341 137.227 294.767 140.08C296.923 142.556 299.08 143.363 303.716 143.363C310.024 143.363 313.367 140.51 314.337 134.158L314.769 131.521H311.103C307.49 131.521 307.383 131.575 307.383 132.867C307.383 136.204 304.256 138.949 302.045 137.604C300.482 136.635 299.296 133.513 299.296 130.283V127.214H307.167H315.092L314.823 121.67C314.553 115.318 313.475 112.573 310.294 110.15C308.623 108.912 307.652 108.643 304.471 108.481C301.236 108.32 300.266 108.535 297.948 109.666ZM306.196 115.049C306.897 115.749 307.976 121.239 307.544 121.939C307.436 122.208 305.496 122.37 303.285 122.37H299.296V120.486C299.296 118.063 300.482 115.103 301.83 114.349C302.908 113.703 305.172 114.026 306.196 115.049Z" fill="#FF1E46"/>
<path d="M329.271 110.043C328.247 110.904 327.223 112.142 327.061 112.734C326.522 114.295 325.605 113.326 325.821 111.442L325.983 109.72L322.37 109.558L318.704 109.397V126.138V142.825H322.478H326.252V131.844C326.252 125.761 326.468 120.216 326.791 119.463C327.492 117.579 330.35 115.91 332.883 115.91H334.878V112.142V108.374H332.991C331.697 108.374 330.565 108.858 329.271 110.043Z" fill="#FF1E46"/>
<path d="M268.026 157.09C268.026 163.388 268.242 167.049 268.565 167.049C268.889 167.049 269.104 164.842 269.104 161.504C269.104 155.206 269.751 153.43 271.962 153.161C274.711 152.838 275.035 153.645 275.035 160.643C275.035 165.972 275.197 167.049 275.844 167.049C277.03 167.049 277.03 154.883 275.79 153.161C274.765 151.707 271.584 151.546 270.075 152.891C269.158 153.699 269.104 153.645 269.104 150.469C269.104 148.585 268.889 147.132 268.565 147.132C268.242 147.132 268.026 150.792 268.026 157.09Z" fill="#FF1E46"/>
<path d="M219.828 148.047C219.666 148.208 219.504 149.177 219.504 150.2C219.504 151.599 219.289 151.976 218.426 151.976C217.833 151.976 217.348 152.192 217.348 152.515C217.348 152.784 217.833 153.053 218.426 153.053C219.45 153.053 219.504 153.43 219.504 159.405C219.504 166.295 219.774 167.049 222.308 167.049C224.087 167.049 224.356 166.134 222.631 165.864C221.445 165.703 221.391 165.488 221.23 159.351L221.068 153.053H222.47C223.278 153.053 223.763 152.838 223.548 152.515C223.386 152.192 222.739 151.976 222.146 151.976C221.337 151.976 221.122 151.599 221.122 150.146C221.122 148.316 220.529 147.347 219.828 148.047Z" fill="#FF1E46"/>
<path d="M261.88 148.047C261.718 148.208 261.556 149.177 261.556 150.146C261.556 151.438 261.287 151.922 260.37 152.245L259.13 152.676L260.37 152.891C261.503 153.107 261.556 153.322 261.556 159.028C261.556 165.811 261.988 167.049 264.252 167.049C266.139 167.049 266.463 166.134 264.683 165.864C263.497 165.703 263.443 165.488 263.282 159.351L263.12 153.053H264.522C265.276 153.053 265.87 152.784 265.87 152.515C265.87 152.192 265.276 151.976 264.522 151.976C263.336 151.976 263.174 151.761 263.174 150.146C263.174 148.316 262.581 147.347 261.88 148.047Z" fill="#FF1E46"/>
<path d="M226.567 153.376C225.165 155.152 224.68 157.79 225.111 161.289C225.65 165.864 227.915 167.749 231.635 166.833C233.36 166.403 234.6 163.442 234.6 159.62C234.6 154.183 233.198 151.976 229.748 151.976C228.13 151.976 227.429 152.299 226.567 153.376ZM232.282 154.668C233.09 156.283 233.198 162.096 232.443 164.088C231.419 166.78 228.076 166.564 227.106 163.765C225.866 160.212 226.567 154.722 228.346 153.43C229.478 152.676 231.581 153.322 232.282 154.668Z" fill="#FF1E46"/>
<path d="M238.482 153.107C236.541 155.152 236.109 161.235 237.727 164.357C239.021 166.995 241.123 167.641 243.226 166.08L244.843 164.842V166.618C244.843 167.641 244.466 168.987 243.981 169.633C242.903 171.194 240.261 171.247 239.344 169.74C238.536 168.502 237.296 168.287 237.296 169.363C237.296 171.57 242.309 172.809 244.628 171.14C245.544 170.44 245.652 169.525 245.814 161.181C245.922 154.937 245.814 151.976 245.436 151.976C245.113 151.976 244.843 152.515 244.843 153.161V154.345L243.981 153.161C242.903 151.599 239.883 151.546 238.482 153.107ZM244.143 155.045C245.383 158.005 244.843 163.711 243.226 165.003C241.716 166.241 241.501 166.187 239.937 164.949C238.751 164.034 238.643 163.496 238.643 159.351C238.643 154.237 239.236 153.053 241.716 153.053C243.01 153.053 243.442 153.376 244.143 155.045Z" fill="#FF1E46"/>
<path d="M250.558 153.214C248.24 155.529 248.078 162.85 250.343 165.703C252.445 168.395 257.028 166.995 257.944 163.388C258.376 161.558 257.082 161.989 256.165 163.98C254.548 167.479 250.99 166.08 250.396 161.72L250.073 159.513H254.224H258.322V157.951C258.322 155.744 257.297 153.107 256.165 152.515C254.386 151.546 251.906 151.922 250.558 153.214ZM255.842 154.237C256.327 154.883 256.704 156.121 256.704 156.982C256.704 158.49 256.704 158.49 253.631 158.328L250.504 158.167L250.612 156.39C250.612 155.421 250.99 154.291 251.313 153.86C252.337 152.622 254.871 152.838 255.842 154.237Z" fill="#FF1E46"/>
<path d="M281.396 152.891C279.941 154.56 279.186 157.898 279.51 161.02C279.941 164.949 281.235 166.726 283.876 166.941C286.195 167.156 287.596 166.187 288.459 163.765C289.214 161.504 287.866 161.666 286.842 163.927C285.278 167.479 281.72 166.08 281.127 161.72L280.803 159.513H284.955C288.836 159.513 289.052 159.459 289.052 158.274C289.052 156.067 287.92 153.053 286.896 152.515C285.278 151.653 282.313 151.869 281.396 152.891ZM286.303 153.807C286.68 154.237 287.111 155.475 287.273 156.552L287.596 158.49L284.416 158.328L281.235 158.167L281.343 156.39C281.343 155.421 281.72 154.291 282.043 153.86C282.906 152.838 285.494 152.838 286.303 153.807Z" fill="#FF1E46"/>
<path d="M291.748 159.513C291.748 165.864 291.856 167.049 292.556 167.049C293.203 167.049 293.365 166.026 293.365 161.181C293.365 155.475 293.419 155.26 294.767 154.183C295.576 153.537 296.546 153.053 296.923 153.053C297.355 153.053 297.678 152.784 297.678 152.515C297.678 151.546 295.036 151.976 294.282 153.053C293.473 154.183 292.718 153.968 293.203 152.73C293.365 152.299 293.15 151.976 292.61 151.976C291.856 151.976 291.748 152.945 291.748 159.513Z" fill="#FF1E46"/>
</svg>
